<svg xmlns="http://www.w3.org/2000/svg" viewBox="0 0 840 520" role="img" aria-label="Warm modern living room illustration">
  <defs>
    <linearGradient id="wall" x1="0" y1="0" x2="1" y2="1"><stop stop-color="#eee6d8"/><stop offset="1" stop-color="#d9cbb7"/></linearGradient>
    <linearGradient id="light" x1="0" y1="0" x2="0" y2="1"><stop stop-color="#fff8e7"/><stop offset="1" stop-color="#ead9b9"/></linearGradient>
    <linearGradient id="sofa" x1="0" y1="0" x2="0" y2="1"><stop stop-color="#f7f2e9"/><stop offset="1" stop-color="#d7cfc2"/></linearGradient>
  </defs>
  <rect width="840" height="520" fill="url(#wall)"/>
  <path d="M0 0h840v42H0z" fill="#e5dbc9" opacity=".48"/>
  <path d="M520 43h240v220H520z" fill="#a8957c" opacity=".28"/>
  <rect x="536" y="55" width="208" height="190" rx="2" fill="url(#light)"/>
  <path d="M640 55v190M536 150h208" stroke="#bba98e" stroke-width="7"/>
  <path d="M536 55 650 55 536 205z" fill="#fffdf2" opacity=".4"/>
  <rect y="372" width="840" height="148" fill="#b39776"/>
  <path d="M0 393h840M0 449h840" stroke="#c7aa84" stroke-width="3" opacity=".55"/>
  <path d="M0 478c150-22 260-12 390 5s315 15 450-2v39H0Z" fill="#a88d6d" opacity=".38"/>
  <rect x="105" y="359" width="525" height="30" rx="12" fill="#b8a58b" opacity=".25"/>
  <path d="M152 279q0-25 28-25h380q28 0 28 25v100H152z" fill="url(#sofa)"/>
  <path d="M123 310q0-24 24-24h28v91h-52zm522 0q0-24-24-24h-28v91h52z" fill="#c7bdaf"/>
  <path d="M167 303q0-16 18-16h170v84H167zm205-16h172q18 0 18 16v68H372z" fill="#eee7dc"/>
  <path d="M178 369h398v21H178z" fill="#c5b9a8"/>
  <path d="M187 389v28m384-28v28" stroke="#705f4d" stroke-width="9" stroke-linecap="round"/>
  <rect x="210" y="298" width="94" height="64" rx="12" fill="#758878"/>
  <path d="M221 309h72v42h-72z" fill="none" stroke="#c3cdbf" stroke-width="2"/>
  <rect x="415" y="303" width="89" height="59" rx="12" fill="#b48d6e"/>
  <path d="M428 314h63v37h-63z" fill="none" stroke="#dbc5ad" stroke-width="2"/>
  <path d="M654 376h132l-14 12H641z" fill="#886d51"/>
  <path d="m670 388-9 70m112-70 9 70" stroke="#725a43" stroke-width="8" stroke-linecap="round"/>
  <ellipse cx="718" cy="375" rx="52" ry="9" fill="#a88760"/>
  <path d="M699 356q19-30 38 0v17h-38z" fill="#84958a"/>
  <path d="M714 356v-14m0 14-9-12m9 12 9-13" stroke="#71857a" stroke-width="2"/>
  <path d="M88 370V236m-18 75q-42-13-38-52 29 5 38 52m16-27q38-14 34-49-26 6-34 49m-16-6q-32-19-24-48 24 11 24 48m8-13q30-22 20-48-24 14-20 48" fill="#6f8978"/>
  <path d="M55 369h68l-8 21H63z" fill="#a77d5d"/>
  <path d="M45 452q75-32 153-3m420 48q68-20 138 0" fill="none" stroke="#decdb4" stroke-width="3" opacity=".45"/>
</svg>
